<?xml version="1.0" standalone="no"?><svg xmlns="http://www.w3.org/2000/svg" viewBox="0 0 1440 320"><path fill="#30d5c8" fill-opacity="1" d="M0,96L34.3,128C68.6,160,137,224,206,234.7C274.3,245,343,203,411,170.7C480,139,549,117,617,138.7C685.7,160,754,224,823,256C891.4,288,960,288,1029,277.3C1097.1,267,1166,245,1234,229.3C1302.9,213,1371,203,1406,197.3L1440,192L1440,320L1405.7,320C1371.4,320,1303,320,1234,320C1165.7,320,1097,320,1029,320C960,320,891,320,823,320C754.3,320,686,320,617,320C548.6,320,480,320,411,320C342.9,320,274,320,206,320C137.1,320,69,320,34,320L0,320Z"></path></svg>